<svg xmlns="http://www.w3.org/2000/svg" xml:space="preserve" width="512px" height="512px" style="shape-rendering:geometricPrecision; text-rendering:geometricPrecision; image-rendering:optimizeQuality; fill-rule:evenodd; clip-rule:evenodd" viewBox="0 0 512 512" xmlns:xlink="http://www.w3.org/1999/xlink">
 <defs>
  <style type="text/css">
   
    .fil1 {fill:#F9F9F9}
    .fil0 {fill:#52ABB3}
    .fil2 {fill:#AADDE3}
   
  </style>
 </defs>
 <g id="Layer_x0020_1">
  <metadata id="CorelCorpID_0Corel-Layer"></metadata>
  <path class="fil0" d="M256 511.999c-141.465,0 -255.999,-114.533 -255.999,-255.999 0,-141.465 114.533,-255.999 255.999,-255.999 141.465,0 255.999,114.534 255.999,255.999 0,141.466 -114.534,255.999 -255.999,255.999zm26.6375 -120.444l-53.2738 0c-3.86576,0 -7.00042,-3.13466 -7.00042,-7.00042l0 -94.9172 -94.9149 0c-3.86694,0 -7.00042,-3.13347 -7.00042,-6.99923l0 -53.275c0,-3.86576 3.13347,-7.00042 7.00042,-7.00042l94.9149 0 0 -94.9149c0,-3.86576 3.13466,-7.00042 7.00042,-7.00042l53.2738 0c3.86576,0 6.99923,3.13466 6.99923,7.00042l0 94.916 94.916 -0.00118111c3.86576,0 6.99923,3.13466 6.99923,7.00042l0 53.275c0,3.86576 -3.13347,6.99923 -6.99923,6.99923l-94.916 0 0 94.9172c0,3.86576 -3.13347,7.00042 -6.99923,7.00042zm-46.2746 -13.9996l39.2741 0 0 -94.9172c0,-3.86694 3.13347,-7.00042 6.99923,-7.00042l94.9149 0 0 -39.2753 -94.9149 0c-3.86576,0 -6.99923,-3.13347 -6.99923,-6.99923l0 -94.916 -39.2741 0 0 94.916c0,3.86576 -3.13466,6.99923 -7.00042,6.99923l-94.916 0 0 39.2753 94.916 0c3.86576,0 7.00042,3.13347 7.00042,7.00042l0 94.9172zm19.6371 -363.554c-133.439,0 -241.999,108.56 -241.999,241.999 0,133.438 108.56,241.999 241.999,241.999 133.437,0 241.998,-108.561 241.998,-241.999 0,-133.439 -108.56,-241.999 -241.998,-241.999z" id="id_101" style="fill: rgb(187, 188, 237);"></path>
  <path class="fil1" d="M282.636 275.637l94.9149 0 0 -39.2753 -94.9149 0c-3.86576,0 -6.99923,-3.13347 -6.99923,-6.99923l0 -94.916 -39.2741 0 0 94.916c0,3.86576 -3.13466,6.99923 -7.00042,6.99923l-94.916 0 0 39.2753 94.916 0c3.86576,0 7.00042,3.13347 7.00042,7.00042l0 94.9172 39.2741 0 0 -94.9172c0,-3.86694 3.13347,-7.00042 6.99923,-7.00042z" id="id_102"></path>
  <path class="fil2" d="M289.637 222.363l94.916 -0.00118111c3.86576,0 6.99923,3.13466 6.99923,7.00042l0 53.275c0,3.86576 -3.13347,6.99923 -6.99923,6.99923l-94.916 0 0 94.9172c0,3.86576 -3.13347,7.00042 -6.99923,7.00042l-53.2738 0c-3.86576,0 -7.00042,-3.13466 -7.00042,-7.00042l0 -94.9172 -94.9149 0c-3.86694,0 -7.00042,-3.13347 -7.00042,-6.99923l0 -53.275c0,-3.86576 3.13347,-7.00042 7.00042,-7.00042l94.9149 0 0 -94.9149c0,-3.86576 3.13466,-7.00042 7.00042,-7.00042l53.2738 0c3.86576,0 6.99923,3.13466 6.99923,7.00042l0 94.916zm-275.636 33.6367c0,133.438 108.56,241.999 241.999,241.999 133.437,0 241.998,-108.561 241.998,-241.999 0,-133.439 -108.56,-241.999 -241.998,-241.999 -133.439,0 -241.999,108.56 -241.999,241.999z" id="id_103" style="fill: rgb(33, 36, 196);"></path>
 </g>
</svg>