<?xml version="1.0" encoding="UTF-8" standalone="no"?> <svg width="64" height="64" viewBox="0 0 64 64" fill="none" xmlns="http://www.w3.org/2000/svg">
<path d="M56.0701 3.79004H6.29011L3.86011 6.79004V44.79L19.3601 29.27L35.6401 44.81L45.2901 35.21L60.2101 49.86V6.57004L56.0701 3.79004ZM33.1501 23.68C31.9357 23.68 30.7486 23.3199 29.7389 22.6453C28.7292 21.9706 27.9422 21.0117 27.4775 19.8897C27.0128 18.7678 26.8912 17.5332 27.1281 16.3422C27.365 15.1511 27.9498 14.0571 28.8085 13.1984C29.6672 12.3397 30.7612 11.7549 31.9523 11.518C33.1433 11.2811 34.3778 11.4027 35.4998 11.8674C36.6217 12.3321 37.5807 13.1191 38.2553 14.1288C38.93 15.1386 39.2901 16.3257 39.2901 17.54C39.2901 19.1685 38.6432 20.7302 37.4917 21.8817C36.3403 23.0331 34.7785 23.68 33.1501 23.68Z" fill="#78B9EB"/>
<path d="M56 2.5H8C6.54212 2.50264 5.14471 3.08295 4.11383 4.11383C3.08295 5.14471 2.50264 6.54212 2.5 8V56C2.50264 57.4579 3.08295 58.8553 4.11383 59.8862C5.14471 60.917 6.54212 61.4974 8 61.5H56C57.4579 61.4974 58.8553 60.917 59.8862 59.8862C60.917 58.8553 61.4974 57.4579 61.5 56V8C61.4974 6.54212 60.917 5.14471 59.8862 4.11383C58.8553 3.08295 57.4579 2.50264 56 2.5V2.5ZM8 5.5H56C56.663 5.5 57.2989 5.76339 57.7678 6.23223C58.2366 6.70107 58.5 7.33696 58.5 8V46.83L46 34.32C45.719 34.0386 45.3377 33.8804 44.94 33.88C44.5423 33.8804 44.161 34.0386 43.88 34.32L35.6 42.61L20.91 27.93C20.7714 27.7897 20.6064 27.6783 20.4244 27.6023C20.2424 27.5263 20.0472 27.4871 19.85 27.4871C19.6528 27.4871 19.4576 27.5263 19.2756 27.6023C19.0936 27.6783 18.9286 27.7897 18.79 27.93L5.5 41.22V8C5.5 7.33696 5.76339 6.70107 6.23223 6.23223C6.70107 5.76339 7.33696 5.5 8 5.5V5.5ZM5.5 56V45.46L19.85 31.11L47.24 58.5H8C7.33696 58.5 6.70107 58.2366 6.23223 57.7678C5.76339 57.2989 5.5 56.663 5.5 56V56ZM56 58.5H51.48L37.71 44.73L44.93 37.5L58.5 51.07V56C58.5 56.663 58.2366 57.2989 57.7678 57.7678C57.2989 58.2366 56.663 58.5 56 58.5V58.5Z" fill="#006DF0"/>
<path d="M33.1499 24.7598C34.5779 24.7598 35.9738 24.3364 37.1611 23.543C38.3485 22.7497 39.2739 21.6221 39.8203 20.3028C40.3668 18.9835 40.5098 17.5318 40.2312 16.1313C39.9526 14.7307 39.265 13.4443 38.2552 12.4345C37.2455 11.4248 35.959 10.7371 34.5585 10.4586C33.1579 10.18 31.7062 10.323 30.387 10.8694C29.0677 11.4159 27.9401 12.3413 27.1467 13.5286C26.3534 14.7159 25.9299 16.1118 25.9299 17.5398C25.9326 19.4539 26.6941 21.2888 28.0475 22.6422C29.401 23.9957 31.2359 24.7572 33.1499 24.7598V24.7598ZM33.1499 13.3198C33.9846 13.3198 34.8005 13.5673 35.4944 14.031C36.1884 14.4947 36.7293 15.1538 37.0487 15.9249C37.3681 16.696 37.4517 17.5445 37.2888 18.3631C37.126 19.1817 36.7241 19.9336 36.1339 20.5238C35.5437 21.114 34.7918 21.5159 33.9732 21.6787C33.1546 21.8416 32.3061 21.758 31.535 21.4386C30.7639 21.1192 30.1048 20.5783 29.6411 19.8843C29.1774 19.1904 28.9299 18.3745 28.9299 17.5398C28.9299 16.9856 29.0391 16.4369 29.2512 15.9249C29.4632 15.4129 29.7741 14.9477 30.1659 14.5558C30.5578 14.164 31.023 13.8531 31.535 13.6411C32.047 13.429 32.5958 13.3198 33.1499 13.3198V13.3198Z" fill="#006DF0"/>
</svg>
