<svg xmlns="http://www.w3.org/2000/svg" xml:space="preserve" width="1.70666in" height="1.70666in" version="1.1" style="shape-rendering:geometricPrecision; text-rendering:geometricPrecision; image-rendering:optimizeQuality; fill-rule:evenodd; clip-rule:evenodd" viewBox="0 0 1706.66 1706.66" xmlns:xlink="http://www.w3.org/1999/xlink" xmlns:xodm="http://www.corel.com/coreldraw/odm/2003">
 <defs>
  <style type="text/css">
   
    .fil0 {fill:#00CCFF}
    .fil1 {fill:#96EAFF}
   
  </style>
 </defs>
 <g id="Layer_x0020_1">
  <metadata id="CorelCorpID_0Corel-Layer"></metadata>
  <path class="fil0" d="M1292.84 1414.19l-284.7 0c-11.04,0 -20,-8.97 -20,-20l0 -209.43c0,-11.04 8.97,-20 20,-20l284.7 0c90.62,0 164.36,-73.74 164.36,-164.36 0,-90.62 -73.74,-164.35 -164.36,-164.35l-933.78 0.01 192.13 172.24c3.94,3.54 6.34,8.5 6.63,13.8 0.3,5.29 -1.54,10.49 -5.08,14.43l-77.98 86.98c-3.54,3.96 -8.5,6.33 -13.8,6.63 -5.36,0.37 -10.49,-1.53 -14.44,-5.07l-1.44 -1.31c-143.79,-128.94 -292.48,-262.25 -438.62,-397.78 -4.09,-3.78 -6.41,-9.1 -6.41,-14.67 0,-5.57 2.32,-10.88 6.41,-14.67 145.89,-135.33 288.79,-263.43 440.08,-399.07 8.22,-7.37 20.86,-6.68 28.25,1.54l77.98 86.97c3.54,3.96 5.36,9.15 5.08,14.44 -0.3,5.29 -2.67,10.26 -6.63,13.81l-192.14 172.25 933.78 0c228.16,0 413.79,185.63 413.79,413.79 0,228.17 -185.63,413.8 -413.79,413.8zm-264.7 -40l264.7 0c206.1,0 373.78,-167.67 373.78,-373.79 0,-206.1 -167.67,-373.79 -373.78,-373.79l-986.05 0c-8.3,0 -15.72,-5.11 -18.68,-12.85 -2.96,-7.74 -0.85,-16.5 5.31,-22.04l216.18 -193.8 -51.28 -57.19c-140.19,125.69 -273.45,245.3 -408.85,370.58 136.25,126.05 274.58,250.22 408.86,370.61l51.26 -57.21 -216.16 -193.78c-6.17,-5.53 -8.29,-14.3 -5.31,-22.04 2.96,-7.74 10.39,-12.84 18.68,-12.84l986.05 0c112.68,0 204.37,91.68 204.37,204.35 0,112.68 -91.69,204.36 -204.37,204.36l-264.71 0 0 169.42 -0.01 0z" id="id_101" style="fill: rgb(118, 120, 204);"></path>
  <path class="fil1" d="M1028.13 1374.19l0 0zm-721.33 -578.14l986.05 0c112.68,0 204.37,91.68 204.37,204.35 0,112.68 -91.69,204.36 -204.37,204.36l-264.71 0 -0.01 169.42 264.7 0c206.1,0 373.78,-167.67 373.78,-373.79 0,-206.1 -167.67,-373.79 -373.78,-373.79l-986.05 0c-8.3,0 -15.72,-5.11 -18.68,-12.85 -2.96,-7.74 -0.85,-16.5 5.31,-22.04l216.18 -193.8 -51.28 -57.19c-140.19,125.69 -273.45,245.3 -408.85,370.58 136.25,126.05 274.58,250.22 408.86,370.61l51.26 -57.21 -216.16 -193.78c-6.17,-5.53 -8.29,-14.3 -5.31,-22.04 2.96,-7.74 10.39,-12.84 18.68,-12.84z" id="id_102" style="fill: rgb(0, 3, 179);"></path>
 </g>
</svg>